<?xml version="1.0" encoding="utf-8"?>
<svg width="400" height="400" version="1.1" viewBox="0 0 400 400" xmlns="http://www.w3.org/2000/svg">
  <defs>
    <clipPath id="a">
      <path d="m0.074219 0.0039062h3932.4v3941.9h-3932.4v-3941.9z"/>
    </clipPath>
  </defs>
  <g transform="matrix(1.25, 0, 0, -1.25, -81.083412, 484.297455)">
    <g transform="scale(.1)">
      <g clip-path="url(#a)">
        <path d="m868.62 822.22c0 38.047-30.851 68.894-68.898 68.894s-68.895-30.847-68.895-68.894 30.848-68.895 68.895-68.895 68.898 30.848 68.898 68.895c0 2.293-0.117 4.593-0.347 6.879" fill="none" stroke="#464632" stroke-linecap="round" stroke-linejoin="round" stroke-miterlimit="10" stroke-width="30"/>
        <path d="m791.74 890.64-23.988 205.5" fill="none" stroke="#464632" stroke-linecap="round" stroke-linejoin="round" stroke-miterlimit="10" stroke-width="30"/>
        <path d="m799.72 822.22h34.449c0 19.023-15.426 34.445-34.449 34.445-19.024 0-34.446-15.422-34.446-34.445 0-19.024 15.422-34.45 34.446-34.45 19.023 0 34.449 15.426 34.449 34.45 0 1.144-0.059 2.297-0.172 3.437" fill="#dd460a"/>
        <path d="m828.66 1164.6c0 38.05-30.848 68.9-68.894 68.9-38.047 0-68.899-30.85-68.899-68.9 0-38.04 30.852-68.89 68.899-68.89 38.046 0 68.894 30.85 68.894 68.89 0 2.3-0.117 4.6-0.344 6.88" fill="none" stroke="#464632" stroke-linecap="round" stroke-linejoin="round" stroke-miterlimit="10" stroke-width="30"/>
        <path d="m827.72 1153.2 255.96-43.1" fill="none" stroke="#464632" stroke-linecap="round" stroke-linejoin="round" stroke-miterlimit="10" stroke-width="30"/>
        <path d="m771.6 1232.4 31.024 177.82" fill="none" stroke="#464632" stroke-linecap="round" stroke-linejoin="round" stroke-miterlimit="10" stroke-width="30"/>
        <path d="m759.77 1164.6h34.445c0 19.03-15.422 34.45-34.445 34.45-19.024 0-34.45-15.42-34.45-34.45 0-19.02 15.426-34.44 34.45-34.44 19.023 0 34.445 15.42 34.445 34.44 0 1.15-0.059 2.3-0.172 3.44" fill="#dd460a"/>
        <path d="m883.4 1478.1c0 38.05-30.847 68.9-68.894 68.9s-68.895-30.85-68.895-68.9 30.848-68.89 68.895-68.89 68.894 30.84 68.894 68.89c0 2.29-0.117 4.59-0.343 6.88" fill="none" stroke="#464632" stroke-linecap="round" stroke-linejoin="round" stroke-miterlimit="10" stroke-width="30"/>
        <path d="m814.51 1478.1h34.445c0 19.02-15.422 34.45-34.445 34.45-19.024 0-34.449-15.43-34.449-34.45s15.425-34.45 34.449-34.45c19.023 0 34.445 15.43 34.445 34.45 0 1.15-0.058 2.3-0.172 3.44" fill="#dd460a"/>
        <path d="m811.24 1859.8c0 38.05-30.847 68.9-68.894 68.9s-68.895-30.85-68.895-68.9c0-38.04 30.848-68.89 68.895-68.89s68.894 30.85 68.894 68.89c0 2.3-0.117 4.6-0.344 6.88" fill="none" stroke="#464632" stroke-linecap="round" stroke-linejoin="round" stroke-miterlimit="10" stroke-width="30"/>
        <path d="m809.67 1845.3 210.85-45.7" fill="none" stroke="#464632" stroke-linecap="round" stroke-linejoin="round" stroke-miterlimit="10" stroke-width="30"/>
        <path d="m756.39 1927.2 24.183 116.32" fill="none" stroke="#464632" stroke-linecap="round" stroke-linejoin="round" stroke-miterlimit="10" stroke-width="30"/>
        <path d="m742.35 1859.8h34.449c0 19.03-15.426 34.45-34.449 34.45-19.024 0-34.45-15.42-34.45-34.45 0-19.02 15.426-34.44 34.45-34.44 19.023 0 34.449 15.42 34.449 34.44 0 1.15-0.063 2.3-0.176 3.44" fill="#dd460a"/>
        <path d="m863.5 2111c0 38.05-30.848 68.9-68.895 68.9-38.046 0-68.894-30.85-68.894-68.9s30.848-68.89 68.894-68.89c38.047 0 68.895 30.84 68.895 68.89 0 2.3-0.117 4.6-0.344 6.88" fill="none" stroke="#464632" stroke-linecap="round" stroke-linejoin="round" stroke-miterlimit="10" stroke-width="30"/>
        <path d="m861.97 2125.4 233.78 50.09" fill="none" stroke="#464632" stroke-linecap="round" stroke-linejoin="round" stroke-miterlimit="10" stroke-width="30"/>
        <path d="m785.8 2179.3-39.207 303.11" fill="none" stroke="#464632" stroke-linecap="round" stroke-linejoin="round" stroke-miterlimit="10" stroke-width="30"/>
        <path d="m794.61 2111h34.446c0 19.03-15.422 34.45-34.446 34.45-19.023 0-34.449-15.42-34.449-34.45 0-19.02 15.426-34.44 34.449-34.44 19.024 0 34.446 15.42 34.446 34.44 0 1.15-0.059 2.3-0.172 3.44" fill="#dd460a"/>
        <path d="m806.64 2550.8c0 38.05-30.848 68.89-68.895 68.89s-68.894-30.84-68.894-68.89 30.847-68.89 68.894-68.89 68.895 30.84 68.895 68.89c0 2.3-0.118 4.6-0.344 6.88" fill="none" stroke="#464632" stroke-linecap="round" stroke-linejoin="round" stroke-miterlimit="10" stroke-width="30"/>
        <path d="m748.13 2618.8 30.867 203.18" fill="none" stroke="#464632" stroke-linecap="round" stroke-linejoin="round" stroke-miterlimit="10" stroke-width="30"/>
        <path d="m737.75 2550.8h34.449c0 19.02-15.425 34.44-34.449 34.44-19.023 0-34.445-15.42-34.445-34.44s15.422-34.45 34.445-34.45c19.024 0 34.449 15.43 34.449 34.45 0 1.14-0.058 2.3-0.172 3.44" fill="#dd460a"/>
        <path d="m858.23 2890.1c0 38.05-30.847 68.9-68.894 68.9s-68.895-30.85-68.895-68.9c0-38.04 30.848-68.89 68.895-68.89s68.894 30.85 68.894 68.89c0 2.3-0.117 4.6-0.343 6.88" fill="none" stroke="#464632" stroke-linecap="round" stroke-linejoin="round" stroke-miterlimit="10" stroke-width="30"/>
        <path d="m858.04 2885.1 159.22-11.52" fill="none" stroke="#464632" stroke-linecap="round" stroke-linejoin="round" stroke-miterlimit="10" stroke-width="30"/>
        <path d="m789.34 2890.1h34.445c0 19.03-15.422 34.45-34.445 34.45-19.024 0-34.449-15.42-34.449-34.45 0-19.02 15.425-34.45 34.449-34.45 19.023 0 34.445 15.43 34.445 34.45 0 1.15-0.058 2.3-0.172 3.44" fill="#dd460a"/>
        <path d="m876.88 3151.8c0 38.05-30.848 68.9-68.895 68.9-38.046 0-68.898-30.85-68.898-68.9s30.852-68.9 68.898-68.9c38.047 0 68.895 30.85 68.895 68.9 0 2.3-0.117 4.6-0.344 6.88" fill="none" stroke="#464632" stroke-linecap="round" stroke-linejoin="round" stroke-miterlimit="10" stroke-width="30"/>
        <path d="m911.28 3151.8c0 57.05-46.25 103.3-103.3 103.3-57.05 0-103.3-46.25-103.3-103.3s46.254-103.3 103.3-103.3c57.051 0 103.3 46.25 103.3 103.3 0 3.44-0.176 6.89-0.515 10.31" fill="none" stroke="#464632" stroke-linecap="round" stroke-linejoin="round" stroke-miterlimit="10" stroke-width="30"/>
        <path d="m807.98 3151.8h34.446c0 19.02-15.422 34.45-34.446 34.45-19.023 0-34.449-15.43-34.449-34.45 0-19.03 15.426-34.45 34.449-34.45 19.024 0 34.446 15.42 34.446 34.45 0 1.15-0.059 2.3-0.172 3.44" fill="#dd460a"/>
        <path d="m887.92 3578.5c0 38.05-30.848 68.9-68.895 68.9s-68.894-30.85-68.894-68.9c0-38.04 30.847-68.89 68.894-68.89s68.895 30.85 68.895 68.89c0 2.3-0.117 4.6-0.344 6.88" fill="none" stroke="#464632" stroke-linecap="round" stroke-linejoin="round" stroke-miterlimit="10" stroke-width="30"/>
        <path d="m887.88 3577.4 180.54-2.91" fill="none" stroke="#464632" stroke-linecap="round" stroke-linejoin="round" stroke-miterlimit="10" stroke-width="30"/>
        <path d="m819.03 3578.5h34.45c0 19.03-15.426 34.45-34.45 34.45-19.023 0-34.445-15.42-34.445-34.45 0-19.02 15.422-34.45 34.445-34.45 19.024 0 34.45 15.43 34.45 34.45 0 1.15-0.059 2.3-0.172 3.44" fill="#dd460a"/>
        <path d="m1147.1 799.22c0 38.047-30.85 68.894-68.9 68.894s-68.89-30.847-68.89-68.894 30.84-68.895 68.89-68.895 68.9 30.848 68.9 68.895c0 2.293-0.12 4.594-0.35 6.879" fill="none" stroke="#464632" stroke-linecap="round" stroke-linejoin="round" stroke-miterlimit="10" stroke-width="30"/>
        <path d="m1181.5 799.22c0 57.051-46.25 103.3-103.3 103.3s-103.3-46.25-103.3-103.3 46.254-103.3 103.3-103.3 103.3 46.254 103.3 103.3c0 3.441-0.17 6.886-0.51 10.312" fill="none" stroke="#464632" stroke-linecap="round" stroke-linejoin="round" stroke-miterlimit="10" stroke-width="30"/>
        <path d="m1078.2 799.22h34.45c0 19.023-15.43 34.445-34.45 34.445s-34.45-15.422-34.45-34.445c0-19.024 15.43-34.449 34.45-34.449s34.45 15.425 34.45 34.449c0 1.144-0.06 2.297-0.18 3.437" fill="#dd460a"/>
        <path d="m1220.5 1098.6c0 38.05-30.84 68.89-68.89 68.89s-68.9-30.84-68.9-68.89 30.85-68.9 68.9-68.9 68.89 30.85 68.89 68.9c0 2.29-0.11 4.59-0.34 6.88" fill="none" stroke="#464632" stroke-linecap="round" stroke-linejoin="round" stroke-miterlimit="10" stroke-width="30"/>
        <path d="m1154.8 1167.4 12.04 259.41" fill="none" stroke="#464632" stroke-linecap="round" stroke-linejoin="round" stroke-miterlimit="10" stroke-width="30"/>
        <path d="m1151.6 1098.6h34.44c0 19.02-15.42 34.44-34.44 34.44s-34.45-15.42-34.45-34.44 15.43-34.45 34.45-34.45 34.44 15.43 34.44 34.45c0 1.14-0.05 2.3-0.17 3.44" fill="#dd460a"/>
        <path d="m1238.9 1495.7c0 38.04-30.85 68.89-68.9 68.89s-68.89-30.85-68.89-68.89c0-38.05 30.84-68.9 68.89-68.9s68.9 30.85 68.9 68.9c0 2.29-0.12 4.59-0.35 6.87" fill="none" stroke="#464632" stroke-linecap="round" stroke-linejoin="round" stroke-miterlimit="10" stroke-width="30"/>
        <path d="m1170 1495.7h34.45c0 19.02-15.43 34.45-34.45 34.45s-34.45-15.43-34.45-34.45c0-19.03 15.43-34.45 34.45-34.45s34.45 15.42 34.45 34.45c0 1.14-0.06 2.3-0.18 3.44" fill="#dd460a"/>
        <path d="m1156.7 1785c0 38.05-30.85 68.9-68.9 68.9-38.04 0-68.89-30.85-68.89-68.9s30.85-68.89 68.89-68.89c38.05 0 68.9 30.84 68.9 68.89 0 2.3-0.12 4.6-0.35 6.88" fill="none" stroke="#464632" stroke-linecap="round" stroke-linejoin="round" stroke-miterlimit="10" stroke-width="30"/>
        <path d="m1156.7 1783.8 245.14-4.21" fill="none" stroke="#464632" stroke-linecap="round" stroke-linejoin="round" stroke-miterlimit="10" stroke-width="30"/>
        <path d="m1100.4 1852.7 50.06 269.56" fill="none" stroke="#464632" stroke-linecap="round" stroke-linejoin="round" stroke-miterlimit="10" stroke-width="30"/>
        <path d="m1087.8 1785h34.45c0 19.02-15.42 34.45-34.45 34.45-19.02 0-34.44-15.43-34.44-34.45s15.42-34.44 34.44-34.44c19.03 0 34.45 15.42 34.45 34.44 0 1.15-0.06 2.3-0.17 3.44" fill="#dd460a"/>
        <path d="m1232 2190c0 38.04-30.84 68.89-68.89 68.89s-68.89-30.85-68.89-68.89c0-38.05 30.84-68.9 68.89-68.9s68.89 30.85 68.89 68.9c0 2.29-0.11 4.59-0.34 6.87" fill="none" stroke="#464632" stroke-linecap="round" stroke-linejoin="round" stroke-miterlimit="10" stroke-width="30"/>
        <path d="m1156 2258.5-16.28 157.29" fill="none" stroke="#464632" stroke-linecap="round" stroke-linejoin="round" stroke-miterlimit="10" stroke-width="30"/>
        <path d="m1163.1 2190h34.45c0 19.02-15.43 34.44-34.45 34.44s-34.44-15.42-34.44-34.44c0-19.03 15.42-34.45 34.44-34.45s34.45 15.42 34.45 34.45c0 1.14-0.06 2.29-0.17 3.43" fill="#dd460a"/>
        <path d="m1201.5 2484.3c0 38.05-30.85 68.9-68.9 68.9-38.04 0-68.89-30.85-68.89-68.9 0-38.04 30.85-68.89 68.89-68.89 38.05 0 68.9 30.85 68.9 68.89 0 2.3-0.12 4.6-0.35 6.88" fill="none" stroke="#464632" stroke-linecap="round" stroke-linejoin="round" stroke-miterlimit="10" stroke-width="30"/>
        <path d="m1201.4 2487.4 189.78 8.65" fill="none" stroke="#464632" stroke-linecap="round" stroke-linejoin="round" stroke-miterlimit="10" stroke-width="30"/>
        <path d="m1132.6 2484.3h34.45c0 19.03-15.42 34.45-34.45 34.45-19.02 0-34.44-15.42-34.44-34.45 0-19.02 15.42-34.45 34.44-34.45 19.03 0 34.45 15.43 34.45 34.45 0 1.15-0.06 2.3-0.17 3.44" fill="#dd460a"/>
        <path d="m1154.8 2868.7c0 38.05-30.85 68.89-68.89 68.89-38.05 0-68.9-30.84-68.9-68.89s30.85-68.89 68.9-68.89c38.04 0 68.89 30.84 68.89 68.89 0 2.3-0.12 4.6-0.34 6.88" fill="none" stroke="#464632" stroke-linecap="round" stroke-linejoin="round" stroke-miterlimit="10" stroke-width="30"/>
        <path d="m1154.8 2870.6 280.5 8.1" fill="none" stroke="#464632" stroke-linecap="round" stroke-linejoin="round" stroke-miterlimit="10" stroke-width="30"/>
        <path d="m1086 2868.7h34.45c0 19.02-15.43 34.45-34.45 34.45-19.03 0-34.45-15.43-34.45-34.45s15.42-34.45 34.45-34.45c19.02 0 34.45 15.43 34.45 34.45 0 1.14-0.06 2.3-0.18 3.44" fill="#dd460a"/>
        <path d="m1216.6 3184c0 38.04-30.85 68.89-68.9 68.89-38.04 0-68.89-30.85-68.89-68.89 0-38.05 30.85-68.9 68.89-68.9 38.05 0 68.9 30.85 68.9 68.9 0 2.29-0.12 4.59-0.34 6.87" fill="none" stroke="#464632" stroke-linecap="round" stroke-linejoin="round" stroke-miterlimit="10" stroke-width="30"/>
        <path d="m1251 3184c0 57.05-46.25 103.3-103.31 103.3-57.05 0-103.3-46.25-103.3-103.3 0-57.06 46.25-103.31 103.3-103.31 57.06 0 103.31 46.25 103.31 103.31 0 3.44-0.18 6.89-0.52 10.31" fill="none" stroke="#464632" stroke-linecap="round" stroke-linejoin="round" stroke-miterlimit="10" stroke-width="30"/>
        <path d="m1147.7 3184h34.45c0 19.02-15.42 34.44-34.45 34.44-19.02 0-34.44-15.42-34.44-34.44 0-19.03 15.42-34.45 34.44-34.45 19.03 0 34.45 15.42 34.45 34.45 0 1.14-0.05 2.3-0.17 3.44" fill="#dd460a"/>
        <path d="m1206.2 3573.4c0 38.05-30.85 68.89-68.9 68.89-38.04 0-68.89-30.84-68.89-68.89s30.85-68.9 68.89-68.9c38.05 0 68.9 30.85 68.9 68.9 0 2.3-0.12 4.6-0.35 6.88" fill="none" stroke="#464632" stroke-linecap="round" stroke-linejoin="round" stroke-miterlimit="10" stroke-width="30"/>
        <path d="m1134.8 3642.2-6.96 195.52" fill="none" stroke="#464632" stroke-linecap="round" stroke-linejoin="round" stroke-miterlimit="10" stroke-width="30"/>
        <path d="m1137.3 3573.4h34.45c0 19.02-15.42 34.45-34.45 34.45-19.02 0-34.44-15.43-34.44-34.45s15.42-34.45 34.44-34.45c19.03 0 34.45 15.43 34.45 34.45 0 1.14-0.06 2.3-0.17 3.44" fill="#dd460a"/>
        <path d="m1508.9 805.51c0 38.047-30.85 68.894-68.89 68.894-38.05 0-68.9-30.847-68.9-68.894s30.85-68.895 68.9-68.895c38.04 0 68.89 30.848 68.89 68.895 0 2.297-0.12 4.597-0.34 6.879" fill="none" stroke="#464632" stroke-linecap="round" stroke-linejoin="round" stroke-miterlimit="10" stroke-width="30"/>
        <path d="m1442.9 874.32 9.48 227.89" fill="none" stroke="#464632" stroke-linecap="round" stroke-linejoin="round" stroke-miterlimit="10" stroke-width="30"/>
        <path d="m1440 805.51h34.44c0 19.023-15.42 34.449-34.44 34.449-19.03 0-34.45-15.426-34.45-34.449 0-19.024 15.42-34.445 34.45-34.445 19.02 0 34.44 15.421 34.44 34.445 0 1.148-0.06 2.301-0.17 3.441" fill="#dd460a"/>
        <path d="m1524.1 1171c0 38.05-30.85 68.9-68.89 68.9-38.05 0-68.9-30.85-68.9-68.9 0-38.04 30.85-68.89 68.9-68.89 38.04 0 68.89 30.85 68.89 68.89 0 2.3-0.12 4.6-0.34 6.88" fill="none" stroke="#464632" stroke-linecap="round" stroke-linejoin="round" stroke-miterlimit="10" stroke-width="30"/>
        <path d="m1455.2 1171h34.44c0 19.03-15.42 34.45-34.44 34.45-19.03 0-34.45-15.42-34.45-34.45 0-19.02 15.42-34.45 34.45-34.45 19.02 0 34.44 15.43 34.44 34.45 0 1.15-0.06 2.3-0.17 3.44" fill="#dd460a"/>
        <path d="m1496.3 1473.5c0 38.05-30.85 68.9-68.9 68.9-38.04 0-68.89-30.85-68.89-68.9s30.85-68.89 68.89-68.89c38.05 0 68.9 30.84 68.9 68.89 0 2.29-0.12 4.59-0.35 6.88" fill="none" stroke="#464632" stroke-linecap="round" stroke-linejoin="round" stroke-miterlimit="10" stroke-width="30"/>
        <path d="m1496.3 1474.2 239.79 2.51" fill="none" stroke="#464632" stroke-linecap="round" stroke-linejoin="round" stroke-miterlimit="10" stroke-width="30"/>
        <path d="m1427.4 1473.5h34.45c0 19.02-15.42 34.45-34.45 34.45-19.02 0-34.44-15.43-34.44-34.45s15.42-34.45 34.44-34.45c19.03 0 34.45 15.43 34.45 34.45 0 1.15-0.06 2.3-0.17 3.44" fill="#dd460a"/>
        <path d="m1539.6 1778.4c0 38.05-30.84 68.9-68.89 68.9s-68.9-30.85-68.9-68.9c0-38.04 30.85-68.89 68.9-68.89s68.89 30.85 68.89 68.89c0 2.3-0.11 4.6-0.34 6.88" fill="none" stroke="#464632" stroke-linecap="round" stroke-linejoin="round" stroke-miterlimit="10" stroke-width="30"/>
        <path d="m1538.8 1788.9 219.35 33.69" fill="none" stroke="#464632" stroke-linecap="round" stroke-linejoin="round" stroke-miterlimit="10" stroke-width="30"/>
        <path d="m1471.2 1847.3 1.61 214.78" fill="none" stroke="#464632" stroke-linecap="round" stroke-linejoin="round" stroke-miterlimit="10" stroke-width="30"/>
        <path d="m1470.7 1778.4h34.45c0 19.03-15.43 34.45-34.45 34.45s-34.45-15.42-34.45-34.45c0-19.02 15.43-34.44 34.45-34.44s34.45 15.42 34.45 34.44c0 1.15-0.06 2.3-0.18 3.45" fill="#dd460a"/>
        <path d="m1542.2 2130.9c0 38.05-30.85 68.89-68.9 68.89-38.04 0-68.89-30.84-68.89-68.89s30.85-68.89 68.89-68.89c38.05 0 68.9 30.84 68.9 68.89 0 2.3-0.12 4.6-0.35 6.88" fill="none" stroke="#464632" stroke-linecap="round" stroke-linejoin="round" stroke-miterlimit="10" stroke-width="30"/>
        <path d="m1542.2 2128.4 153.6-5.79" fill="none" stroke="#464632" stroke-linecap="round" stroke-linejoin="round" stroke-miterlimit="10" stroke-width="30"/>
        <path d="m1470.9 2199.8-8.38 230.59" fill="none" stroke="#464632" stroke-linecap="round" stroke-linejoin="round" stroke-miterlimit="10" stroke-width="30"/>
        <path d="m1473.3 2130.9h34.45c0 19.02-15.42 34.45-34.45 34.45-19.02 0-34.44-15.43-34.44-34.45s15.42-34.45 34.44-34.45c19.03 0 34.45 15.43 34.45 34.45 0 1.15-0.06 2.3-0.17 3.44" fill="#dd460a"/>
        <path d="m1528.9 2499.2c0 38.04-30.85 68.89-68.9 68.89-38.04 0-68.89-30.85-68.89-68.89 0-38.05 30.85-68.9 68.89-68.9 38.05 0 68.9 30.85 68.9 68.9 0 2.29-0.12 4.59-0.35 6.87" fill="none" stroke="#464632" stroke-linecap="round" stroke-linejoin="round" stroke-miterlimit="10" stroke-width="30"/>
        <path d="m1460 2499.2h34.45c0 19.02-15.42 34.45-34.45 34.45-19.02 0-34.45-15.43-34.45-34.45 0-19.03 15.43-34.45 34.45-34.45 19.03 0 34.45 15.42 34.45 34.45 0 1.14-0.06 2.29-0.17 3.44" fill="#dd460a"/>
        <path d="m1573 2880.7c0 38.05-30.85 68.9-68.89 68.9-38.05 0-68.9-30.85-68.9-68.9 0-38.04 30.85-68.89 68.9-68.89 38.04 0 68.89 30.85 68.89 68.89 0 2.3-0.12 4.6-0.34 6.88" fill="none" stroke="#464632" stroke-linecap="round" stroke-linejoin="round" stroke-miterlimit="10" stroke-width="30"/>
        <path d="m1503.5 2949.6-1.7 185.57" fill="none" stroke="#464632" stroke-linecap="round" stroke-linejoin="round" stroke-miterlimit="10" stroke-width="30"/>
        <path d="m1504.1 2880.7h34.44c0 19.03-15.42 34.45-34.44 34.45-19.03 0-34.45-15.42-34.45-34.45 0-19.02 15.42-34.44 34.45-34.44 19.02 0 34.44 15.42 34.44 34.44 0 1.15-0.06 2.3-0.17 3.44" fill="#dd460a"/>
        <path d="m1570.1 3204c0 38.05-30.85 68.9-68.9 68.9-38.04 0-68.89-30.85-68.89-68.9s30.85-68.89 68.89-68.89c38.05 0 68.9 30.84 68.9 68.89 0 2.3-0.12 4.6-0.34 6.88" fill="none" stroke="#464632" stroke-linecap="round" stroke-linejoin="round" stroke-miterlimit="10" stroke-width="30"/>
        <path d="m1570 3208.3 171.96 10.7" fill="none" stroke="#464632" stroke-linecap="round" stroke-linejoin="round" stroke-miterlimit="10" stroke-width="30"/>
        <path d="m1490.1 3272-25.09 153.45" fill="none" stroke="#464632" stroke-linecap="round" stroke-linejoin="round" stroke-miterlimit="10" stroke-width="30"/>
        <path d="m1501.2 3204h34.45c0 19.03-15.42 34.45-34.45 34.45-19.02 0-34.44-15.42-34.44-34.45 0-19.02 15.42-34.44 34.44-34.44 19.03 0 34.45 15.42 34.45 34.44 0 1.15-0.06 2.3-0.17 3.44" fill="#dd460a"/>
        <path d="m1522.8 3493.4c0 38.05-30.85 68.9-68.89 68.9-38.05 0-68.9-30.85-68.9-68.9 0-38.04 30.85-68.89 68.9-68.89 38.04 0 68.89 30.85 68.89 68.89 0 2.3-0.11 4.6-0.34 6.88" fill="none" stroke="#464632" stroke-linecap="round" stroke-linejoin="round" stroke-miterlimit="10" stroke-width="30"/>
        <path d="m1457.1 3562.2 10.74 228.63" fill="none" stroke="#464632" stroke-linecap="round" stroke-linejoin="round" stroke-miterlimit="10" stroke-width="30"/>
        <path d="m1453.9 3493.4h34.45c0 19.03-15.43 34.45-34.45 34.45-19.03 0-34.45-15.42-34.45-34.45 0-19.02 15.42-34.44 34.45-34.44 19.02 0 34.45 15.42 34.45 34.44 0 1.15-0.06 2.3-0.18 3.45" fill="#dd460a"/>
        <path d="m1925 802.91c0 38.047-30.84 68.895-68.89 68.895s-68.89-30.848-68.89-68.895 30.84-68.894 68.89-68.894 68.89 30.847 68.89 68.894c0 2.297-0.11 4.598-0.34 6.879" fill="none" stroke="#464632" stroke-linecap="round" stroke-linejoin="round" stroke-miterlimit="10" stroke-width="30"/>
        <path d="m1924.6 796.07 191.43-19.109" fill="none" stroke="#464632" stroke-linecap="round" stroke-linejoin="round" stroke-miterlimit="10" stroke-width="30"/>
        <path d="m1841.4 870.2-50.06 229.14" fill="none" stroke="#464632" stroke-linecap="round" stroke-linejoin="round" stroke-miterlimit="10" stroke-width="30"/>
        <path d="m1856.1 802.91h34.45c0 19.024-15.43 34.449-34.45 34.449s-34.45-15.425-34.45-34.449c0-19.023 15.43-34.449 34.45-34.449s34.45 15.426 34.45 34.449c0 1.145-0.06 2.297-0.17 3.438" fill="#dd460a"/>
        <path d="m1845.5 1166.6c0 38.04-30.85 68.89-68.89 68.89-38.05 0-68.9-30.85-68.9-68.89 0-38.05 30.85-68.9 68.9-68.9 38.04 0 68.89 30.85 68.89 68.9 0 2.29-0.11 4.59-0.34 6.88" fill="none" stroke="#464632" stroke-linecap="round" stroke-linejoin="round" stroke-miterlimit="10" stroke-width="30"/>
        <path d="m1844.7 1156 215.72-33.82" fill="none" stroke="#464632" stroke-linecap="round" stroke-linejoin="round" stroke-miterlimit="10" stroke-width="30"/>
        <path d="m1776.6 1166.6h34.44c0 19.02-15.42 34.45-34.44 34.45-19.03 0-34.45-15.43-34.45-34.45 0-19.03 15.42-34.45 34.45-34.45 19.02 0 34.44 15.42 34.44 34.45 0 1.14-0.06 2.29-0.17 3.44" fill="#dd460a"/>
        <path d="m1873.9 1477.5c0 38.05-30.84 68.9-68.89 68.9s-68.9-30.85-68.9-68.9c0-38.04 30.85-68.9 68.9-68.9s68.89 30.86 68.89 68.9c0 2.3-0.11 4.6-0.34 6.88" fill="none" stroke="#464632" stroke-linecap="round" stroke-linejoin="round" stroke-miterlimit="10" stroke-width="30"/>
        <path d="m1873.8 1480.9 179.86 8.97" fill="none" stroke="#464632" stroke-linecap="round" stroke-linejoin="round" stroke-miterlimit="10" stroke-width="30"/>
        <path d="m1805 1477.5h34.45c0 19.03-15.43 34.45-34.45 34.45-19.03 0-34.45-15.42-34.45-34.45 0-19.02 15.42-34.45 34.45-34.45 19.02 0 34.45 15.43 34.45 34.45 0 1.15-0.06 2.3-0.17 3.44" fill="#dd460a"/>
        <path d="m1895.1 1833c0 38.04-30.85 68.89-68.9 68.89-38.04 0-68.89-30.85-68.89-68.89 0-38.05 30.85-68.9 68.89-68.9 38.05 0 68.9 30.85 68.9 68.9 0 2.29-0.12 4.59-0.35 6.87" fill="none" stroke="#464632" stroke-linecap="round" stroke-linejoin="round" stroke-miterlimit="10" stroke-width="30"/>
        <path d="m1894.3 1823 165.36-24.23" fill="none" stroke="#464632" stroke-linecap="round" stroke-linejoin="round" stroke-miterlimit="10" stroke-width="30"/>
        <path d="m1811.8 1900.4-32.68 152.27" fill="none" stroke="#464632" stroke-linecap="round" stroke-linejoin="round" stroke-miterlimit="10" stroke-width="30"/>
        <path d="m1826.2 1833h34.45c0 19.02-15.42 34.44-34.45 34.44-19.02 0-34.44-15.42-34.44-34.44 0-19.03 15.42-34.45 34.44-34.45 19.03 0 34.45 15.42 34.45 34.45 0 1.14-0.06 2.29-0.17 3.43" fill="#dd460a"/>
        <path d="m1833.5 2120c0 38.05-30.85 68.89-68.89 68.89-38.05 0-68.9-30.84-68.9-68.89s30.85-68.89 68.9-68.89c38.04 0 68.89 30.84 68.89 68.89 0 2.29-0.12 4.59-0.34 6.88" fill="none" stroke="#464632" stroke-linecap="round" stroke-linejoin="round" stroke-miterlimit="10" stroke-width="30"/>
        <path d="m1832.1 2133.6 245.11 49.35" fill="none" stroke="#464632" stroke-linecap="round" stroke-linejoin="round" stroke-miterlimit="10" stroke-width="30"/>
        <path d="m1764.6 2120h34.44c0 19.02-15.42 34.44-34.44 34.44-19.03 0-34.45-15.42-34.45-34.44s15.42-34.45 34.45-34.45c19.02 0 34.44 15.43 34.44 34.45 0 1.14-0.06 2.3-0.17 3.44" fill="#dd460a"/>
        <path d="m1913.9 2541.8c0 38.04-30.85 68.89-68.9 68.89s-68.89-30.85-68.89-68.89c0-38.05 30.84-68.9 68.89-68.9s68.9 30.85 68.9 68.9c0 2.29-0.12 4.59-0.35 6.87" fill="none" stroke="#464632" stroke-linecap="round" stroke-linejoin="round" stroke-miterlimit="10" stroke-width="30"/>
        <path d="m1948.3 2541.8c0 57.05-46.26 103.3-103.31 103.3s-103.3-46.25-103.3-103.3c0-57.06 46.25-103.31 103.3-103.31s103.31 46.25 103.31 103.31c0 3.44-0.18 6.88-0.52 10.31" fill="none" stroke="#464632" stroke-linecap="round" stroke-linejoin="round" stroke-miterlimit="10" stroke-width="30"/>
        <path d="m1845 2541.8h34.45c0 19.02-15.43 34.44-34.45 34.44s-34.44-15.42-34.44-34.44c0-19.03 15.42-34.45 34.44-34.45s34.45 15.42 34.45 34.45c0 1.14-0.06 2.29-0.17 3.43" fill="#dd460a"/>
        <path d="m1855.2 2849.8c0 38.05-30.85 68.9-68.9 68.9s-68.9-30.85-68.9-68.9c0-38.04 30.85-68.89 68.9-68.89s68.9 30.85 68.9 68.89c0 2.3-0.12 4.6-0.35 6.88" fill="none" stroke="#464632" stroke-linecap="round" stroke-linejoin="round" stroke-miterlimit="10" stroke-width="30"/>
        <path d="m1854.8 2842.2 278.14-30.82" fill="none" stroke="#464632" stroke-linecap="round" stroke-linejoin="round" stroke-miterlimit="10" stroke-width="30"/>
        <path d="m1790.8 2918.6 15.42 235.98" fill="none" stroke="#464632" stroke-linecap="round" stroke-linejoin="round" stroke-miterlimit="10" stroke-width="30"/>
        <path d="m1786.3 2849.8h34.45c0 19.03-15.43 34.45-34.45 34.45s-34.45-15.42-34.45-34.45c0-19.02 15.43-34.44 34.45-34.44s34.45 15.42 34.45 34.44c0 1.15-0.06 2.3-0.17 3.45" fill="#dd460a"/>
        <path d="m1879.6 3223.3c0 38.05-30.85 68.9-68.9 68.9s-68.89-30.85-68.89-68.9 30.84-68.89 68.89-68.89 68.9 30.84 68.9 68.89c0 2.3-0.12 4.6-0.35 6.88" fill="none" stroke="#464632" stroke-linecap="round" stroke-linejoin="round" stroke-miterlimit="10" stroke-width="30"/>
        <path d="m1810.7 3223.3h34.45c0 19.02-15.43 34.45-34.45 34.45s-34.45-15.43-34.45-34.45 15.43-34.45 34.45-34.45 34.45 15.43 34.45 34.45c0 1.15-0.06 2.3-0.18 3.44" fill="#dd460a"/>
        <path d="m1907 3509.4c0 38.04-30.85 68.89-68.9 68.89s-68.9-30.85-68.9-68.89c0-38.05 30.85-68.9 68.9-68.9s68.9 30.85 68.9 68.9c0 2.29-0.12 4.6-0.35 6.88" fill="none" stroke="#464632" stroke-linecap="round" stroke-linejoin="round" stroke-miterlimit="10" stroke-width="30"/>
        <path d="m1906.9 3512.9 219.79 10.97" fill="none" stroke="#464632" stroke-linecap="round" stroke-linejoin="round" stroke-miterlimit="10" stroke-width="30"/>
        <path d="m1826.3 3577.3-44.51 254.07" fill="none" stroke="#464632" stroke-linecap="round" stroke-linejoin="round" stroke-miterlimit="10" stroke-width="30"/>
        <path d="m1838.1 3509.4h34.45c0 19.02-15.43 34.45-34.45 34.45s-34.45-15.43-34.45-34.45c0-19.03 15.43-34.45 34.45-34.45s34.45 15.42 34.45 34.45c0 1.15-0.06 2.3-0.18 3.44" fill="#dd460a"/>
        <path d="m2253.5 770.08c0 38.047-30.84 68.895-68.89 68.895s-68.9-30.848-68.9-68.895 30.85-68.894 68.9-68.894 68.89 30.847 68.89 68.894c0 2.297-0.11 4.598-0.34 6.879" fill="none" stroke="#464632" stroke-linecap="round" stroke-linejoin="round" stroke-miterlimit="10" stroke-width="30"/>
        <path d="m2184.6 770.08h34.45c0 19.024-15.43 34.449-34.45 34.449-19.03 0-34.45-15.425-34.45-34.449 0-19.023 15.42-34.445 34.45-34.445 19.02 0 34.45 15.422 34.45 34.445 0 1.145-0.06 2.297-0.17 3.442" fill="#dd460a"/>
        <path d="m2197.3 1111.5c0 38.05-30.85 68.9-68.89 68.9-38.05 0-68.9-30.85-68.9-68.9 0-38.04 30.85-68.89 68.9-68.89 38.04 0 68.89 30.85 68.89 68.89 0 2.3-0.12 4.6-0.34 6.88" fill="none" stroke="#464632" stroke-linecap="round" stroke-linejoin="round" stroke-miterlimit="10" stroke-width="30"/>
        <path d="m2197 1105.1 198.67-18.56" fill="none" stroke="#464632" stroke-linecap="round" stroke-linejoin="round" stroke-miterlimit="10" stroke-width="30"/>
        <path d="m2128.4 1111.5h34.44c0 19.03-15.42 34.45-34.44 34.45-19.03 0-34.45-15.42-34.45-34.45 0-19.02 15.42-34.44 34.45-34.44 19.02 0 34.44 15.42 34.44 34.44 0 1.15-0.06 2.31-0.17 3.45" fill="#dd460a"/>
        <path d="m2191.3 1493.3c0 38.04-30.84 68.89-68.89 68.89s-68.89-30.85-68.89-68.89c0-38.05 30.84-68.9 68.89-68.9s68.89 30.85 68.89 68.9c0 2.29-0.11 4.59-0.34 6.88" fill="none" stroke="#464632" stroke-linecap="round" stroke-linejoin="round" stroke-miterlimit="10" stroke-width="30"/>
        <path d="m2123.7 1562.2 2.91 157.76" fill="none" stroke="#464632" stroke-linecap="round" stroke-linejoin="round" stroke-miterlimit="10" stroke-width="30"/>
        <path d="m2122.4 1493.3h34.45c0 19.02-15.43 34.45-34.45 34.45s-34.45-15.43-34.45-34.45c0-19.03 15.43-34.45 34.45-34.45s34.45 15.42 34.45 34.45c0 1.14-0.06 2.3-0.18 3.44" fill="#dd460a"/>
        <path d="m2196.7 1788.8c0 38.04-30.85 68.89-68.89 68.89-38.05 0-68.9-30.85-68.9-68.89 0-38.05 30.85-68.9 68.9-68.9 38.04 0 68.89 30.85 68.89 68.9 0 2.29-0.12 4.59-0.34 6.88" fill="none" stroke="#464632" stroke-linecap="round" stroke-linejoin="round" stroke-miterlimit="10" stroke-width="30"/>
        <path d="m2196.7 1788 265.67-3.03" fill="none" stroke="#464632" stroke-linecap="round" stroke-linejoin="round" stroke-miterlimit="10" stroke-width="30"/>
        <path d="m2127.8 1788.8h34.44c0 19.02-15.42 34.44-34.44 34.44-19.03 0-34.45-15.42-34.45-34.44 0-19.03 15.42-34.45 34.45-34.45 19.02 0 34.44 15.42 34.44 34.45 0 1.14-0.06 2.29-0.17 3.43" fill="#dd460a"/>
        <path d="m2213.6 2196.6c0 38.05-30.85 68.9-68.89 68.9-38.05 0-68.9-30.85-68.9-68.9 0-38.04 30.85-68.89 68.9-68.89 38.04 0 68.89 30.85 68.89 68.89 0 2.3-0.12 4.6-0.34 6.88" fill="none" stroke="#464632" stroke-linecap="round" stroke-linejoin="round" stroke-miterlimit="10" stroke-width="30"/>
        <path d="m2213.6 2193.4 256.04-11.91" fill="none" stroke="#464632" stroke-linecap="round" stroke-linejoin="round" stroke-miterlimit="10" stroke-width="30"/>
        <path d="m2144.8 2196.6h34.44c0 19.03-15.42 34.45-34.44 34.45-19.03 0-34.45-15.42-34.45-34.45 0-19.02 15.42-34.45 34.45-34.45 19.02 0 34.44 15.43 34.44 34.45 0 1.15-0.06 2.3-0.17 3.44" fill="#dd460a"/>
        <path d="m2277.7 2528.4c0 38.05-30.85 68.9-68.9 68.9-38.04 0-68.89-30.85-68.89-68.9 0-38.04 30.85-68.89 68.89-68.89 38.05 0 68.9 30.85 68.9 68.89 0 2.3-0.12 4.6-0.35 6.88" fill="none" stroke="#464632" stroke-linecap="round" stroke-linejoin="round" stroke-miterlimit="10" stroke-width="30"/>
        <path d="m2276.6 2515.8 197.28-36.77" fill="none" stroke="#464632" stroke-linecap="round" stroke-linejoin="round" stroke-miterlimit="10" stroke-width="30"/>
        <path d="m2207 2597.3-3.69 137.71" fill="none" stroke="#464632" stroke-linecap="round" stroke-linejoin="round" stroke-miterlimit="10" stroke-width="30"/>
        <path d="m2208.8 2528.4h34.45c0 19.03-15.42 34.45-34.45 34.45-19.02 0-34.45-15.42-34.45-34.45 0-19.02 15.43-34.45 34.45-34.45 19.03 0 34.45 15.43 34.45 34.45 0 1.15-0.06 2.3-0.17 3.44" fill="#dd460a"/>
        <path d="m2270.3 2803.9c0 38.04-30.85 68.89-68.9 68.89s-68.89-30.85-68.89-68.89c0-38.05 30.84-68.9 68.89-68.9s68.9 30.85 68.9 68.9c0 2.29-0.12 4.59-0.35 6.87" fill="none" stroke="#464632" stroke-linecap="round" stroke-linejoin="round" stroke-miterlimit="10" stroke-width="30"/>
        <path d="m2270.2 2806.3 173.06 6.18" fill="none" stroke="#464632" stroke-linecap="round" stroke-linejoin="round" stroke-miterlimit="10" stroke-width="30"/>
        <path d="m2201.4 2803.9h34.45c0 19.02-15.43 34.44-34.45 34.44s-34.45-15.42-34.45-34.44c0-19.03 15.43-34.45 34.45-34.45s34.45 15.42 34.45 34.45c0 1.14-0.06 2.29-0.18 3.43" fill="#dd460a"/>
        <path d="m2203.6 3193.9c0 38.04-30.84 68.89-68.89 68.89s-68.9-30.85-68.9-68.89c0-38.05 30.85-68.9 68.9-68.9s68.89 30.85 68.89 68.9c0 2.29-0.11 4.59-0.34 6.88" fill="none" stroke="#464632" stroke-linecap="round" stroke-linejoin="round" stroke-miterlimit="10" stroke-width="30"/>
        <path d="m2147.1 3261.7 36.09 197.84" fill="none" stroke="#464632" stroke-linecap="round" stroke-linejoin="round" stroke-miterlimit="10" stroke-width="30"/>
        <path d="m2134.7 3193.9h34.44c0 19.02-15.42 34.45-34.44 34.45s-34.45-15.43-34.45-34.45c0-19.03 15.43-34.45 34.45-34.45s34.44 15.42 34.44 34.45c0 1.14-0.05 2.29-0.17 3.43" fill="#dd460a"/>
        <path d="m2264.4 3527.2c0 38.05-30.85 68.9-68.9 68.9s-68.89-30.85-68.89-68.9c0-38.04 30.84-68.89 68.89-68.89s68.9 30.85 68.9 68.89c0 2.3-0.12 4.6-0.35 6.88" fill="none" stroke="#464632" stroke-linecap="round" stroke-linejoin="round" stroke-miterlimit="10" stroke-width="30"/>
        <path d="m2264.3 3524.5 202.4-7.95" fill="none" stroke="#464632" stroke-linecap="round" stroke-linejoin="round" stroke-miterlimit="10" stroke-width="30"/>
        <path d="m2195.5 3527.2h34.45c0 19.03-15.42 34.45-34.45 34.45-19.02 0-34.45-15.42-34.45-34.45 0-19.02 15.43-34.45 34.45-34.45 19.03 0 34.45 15.43 34.45 34.45 0 1.15-0.06 2.3-0.17 3.44" fill="#dd460a"/>
        <path d="m2623.9 797.57c0 38.047-30.84 68.895-68.89 68.895s-68.9-30.848-68.9-68.895c0-38.046 30.85-68.894 68.9-68.894s68.89 30.848 68.89 68.894c0 2.297-0.11 4.598-0.34 6.879" fill="none" stroke="#464632" stroke-linecap="round" stroke-linejoin="round" stroke-miterlimit="10" stroke-width="30"/>
        <path d="m2623.8 800.95 174.39 8.61" fill="none" stroke="#464632" stroke-linecap="round" stroke-linejoin="round" stroke-miterlimit="10" stroke-width="30"/>
        <path d="m2555 797.57h34.44c0 19.024-15.42 34.446-34.44 34.446s-34.45-15.422-34.45-34.446c0-19.023 15.43-34.449 34.45-34.449s34.44 15.426 34.44 34.449c0 1.145-0.05 2.297-0.17 3.438" fill="#dd460a"/>
        <path d="m2533.1 1080.1c0 38.04-30.84 68.89-68.89 68.89s-68.89-30.85-68.89-68.89c0-38.05 30.84-68.9 68.89-68.9s68.89 30.85 68.89 68.9c0 2.29-0.11 4.59-0.34 6.87" fill="none" stroke="#464632" stroke-linecap="round" stroke-linejoin="round" stroke-miterlimit="10" stroke-width="30"/>
        <path d="m2476.9 1147.8 46.01 246.17" fill="none" stroke="#464632" stroke-linecap="round" stroke-linejoin="round" stroke-miterlimit="10" stroke-width="30"/>
        <path d="m2464.2 1080.1h34.45c0 19.02-15.43 34.44-34.45 34.44s-34.45-15.42-34.45-34.44c0-19.03 15.43-34.45 34.45-34.45s34.45 15.42 34.45 34.45c0 1.14-0.06 2.29-0.18 3.44" fill="#dd460a"/>
        <path d="m2604.4 1461.7c0 38.05-30.85 68.9-68.9 68.9-38.04 0-68.89-30.85-68.89-68.9 0-38.04 30.85-68.89 68.89-68.89 38.05 0 68.9 30.85 68.9 68.89 0 2.3-0.12 4.6-0.35 6.88" fill="none" stroke="#464632" stroke-linecap="round" stroke-linejoin="round" stroke-miterlimit="10" stroke-width="30"/>
        <path d="m2535.5 1461.7h34.45c0 19.03-15.42 34.45-34.45 34.45-19.02 0-34.45-15.42-34.45-34.45 0-19.02 15.43-34.45 34.45-34.45 19.03 0 34.45 15.43 34.45 34.45 0 1.15-0.06 2.3-0.17 3.44" fill="#dd460a"/>
        <path d="m2600.1 1784.2c0 38.04-30.84 68.89-68.89 68.89s-68.9-30.85-68.9-68.89c0-38.05 30.85-68.9 68.9-68.9s68.89 30.85 68.89 68.9c0 2.29-0.11 4.59-0.34 6.87" fill="none" stroke="#464632" stroke-linecap="round" stroke-linejoin="round" stroke-miterlimit="10" stroke-width="30"/>
        <path d="m2531.2 1784.2h34.44c0 19.02-15.42 34.44-34.44 34.44s-34.45-15.42-34.45-34.44c0-19.03 15.43-34.45 34.45-34.45s34.44 15.42 34.44 34.45c0 1.14-0.05 2.29-0.17 3.43" fill="#dd460a"/>
        <path d="m2607.3 2178.3c0 38.04-30.85 68.89-68.9 68.89-38.04 0-68.89-30.85-68.89-68.89 0-38.05 30.85-68.9 68.89-68.9 38.05 0 68.9 30.85 68.9 68.9 0 2.29-0.12 4.59-0.35 6.88" fill="none" stroke="#464632" stroke-linecap="round" stroke-linejoin="round" stroke-miterlimit="10" stroke-width="30"/>
        <path d="m2538.4 2178.3h34.45c0 19.02-15.42 34.44-34.45 34.44-19.02 0-34.45-15.42-34.45-34.44 0-19.03 15.43-34.45 34.45-34.45 19.03 0 34.45 15.42 34.45 34.45 0 1.14-0.06 2.29-0.17 3.43" fill="#dd460a"/>
        <path d="m2610.4 2466.5c0 38.05-30.84 68.89-68.89 68.89s-68.9-30.84-68.9-68.89 30.85-68.9 68.9-68.9 68.89 30.85 68.89 68.9c0 2.29-0.11 4.59-0.34 6.88" fill="none" stroke="#464632" stroke-linecap="round" stroke-linejoin="round" stroke-miterlimit="10" stroke-width="30"/>
        <path d="m2541.6 2466.5h34.45c0 19.02-15.43 34.45-34.45 34.45s-34.45-15.43-34.45-34.45 15.43-34.45 34.45-34.45 34.45 15.43 34.45 34.45c0 1.14-0.06 2.3-0.17 3.44" fill="#dd460a"/>
        <path d="m2581 2814.9c0 38.04-30.85 68.89-68.89 68.89-38.05 0-68.9-30.85-68.9-68.89 0-38.05 30.85-68.9 68.9-68.9 38.04 0 68.89 30.85 68.89 68.9 0 2.29-0.12 4.59-0.34 6.88" fill="none" stroke="#464632" stroke-linecap="round" stroke-linejoin="round" stroke-miterlimit="10" stroke-width="30"/>
        <path d="m2579.6 2828.6 154.26 31.15" fill="none" stroke="#464632" stroke-linecap="round" stroke-linejoin="round" stroke-miterlimit="10" stroke-width="30"/>
        <path d="m2502.4 2883.1-38.15 266.18" fill="none" stroke="#464632" stroke-linecap="round" stroke-linejoin="round" stroke-miterlimit="10" stroke-width="30"/>
        <path d="m2512.1 2814.9h34.44c0 19.02-15.42 34.44-34.44 34.44-19.03 0-34.45-15.42-34.45-34.44 0-19.03 15.42-34.45 34.45-34.45 19.02 0 34.44 15.42 34.44 34.45 0 1.14-0.05 2.29-0.17 3.43" fill="#dd460a"/>
        <path d="m2523.4 3217.5c0 38.05-30.85 68.9-68.89 68.9-38.05 0-68.9-30.85-68.9-68.9s30.85-68.89 68.9-68.89c38.04 0 68.89 30.84 68.89 68.89 0 2.3-0.12 4.6-0.34 6.88" fill="none" stroke="#464632" stroke-linecap="round" stroke-linejoin="round" stroke-miterlimit="10" stroke-width="30"/>
        <path d="m2472.6 3283.9 44.75 163.54" fill="none" stroke="#464632" stroke-linecap="round" stroke-linejoin="round" stroke-miterlimit="10" stroke-width="30"/>
        <path d="m2454.5 3217.5h34.45c0 19.02-15.43 34.45-34.45 34.45-19.03 0-34.45-15.43-34.45-34.45s15.42-34.45 34.45-34.45c19.02 0 34.45 15.43 34.45 34.45 0 1.15-0.06 2.3-0.18 3.44" fill="#dd460a"/>
        <path d="m2604.4 3513.9c0 38.05-30.85 68.9-68.9 68.9-38.04 0-68.89-30.85-68.89-68.9 0-38.04 30.85-68.89 68.89-68.89 38.05 0 68.9 30.85 68.9 68.89 0 2.3-0.12 4.6-0.35 6.88" fill="none" stroke="#464632" stroke-linecap="round" stroke-linejoin="round" stroke-miterlimit="10" stroke-width="30"/>
        <path d="m2604.4 3510.4 124.93-6.41" fill="none" stroke="#464632" stroke-linecap="round" stroke-linejoin="round" stroke-miterlimit="10" stroke-width="30"/>
        <path d="m2535.5 3513.9h34.45c0 19.03-15.42 34.45-34.45 34.45-19.02 0-34.45-15.42-34.45-34.45 0-19.02 15.43-34.45 34.45-34.45 19.03 0 34.45 15.43 34.45 34.45 0 1.15-0.06 2.3-0.17 3.44" fill="#dd460a"/>
        <path d="m2935.9 812.94c0 38.047-30.85 68.895-68.9 68.895s-68.89-30.848-68.89-68.895c0-38.046 30.84-68.894 68.89-68.894s68.9 30.848 68.9 68.894c0 2.297-0.12 4.598-0.35 6.879" fill="none" stroke="#464632" stroke-linecap="round" stroke-linejoin="round" stroke-miterlimit="10" stroke-width="30"/>
        <path d="m2935.7 816.95 193.75 11.324" fill="none" stroke="#464632" stroke-linecap="round" stroke-linejoin="round" stroke-miterlimit="10" stroke-width="30"/>
        <path d="m2870.8 881.72 8.22 148.13" fill="none" stroke="#464632" stroke-linecap="round" stroke-linejoin="round" stroke-miterlimit="10" stroke-width="30"/>
        <path d="m2867 812.94h34.45c0 19.024-15.43 34.45-34.45 34.45s-34.44-15.426-34.44-34.45c0-19.023 15.42-34.449 34.44-34.449s34.45 15.426 34.45 34.449c0 1.145-0.06 2.297-0.17 3.438" fill="#dd460a"/>
        <path d="m2951.7 1098.6c0 38.05-30.84 68.89-68.89 68.89s-68.9-30.84-68.9-68.89 30.85-68.9 68.9-68.9 68.89 30.85 68.89 68.9c0 2.29-0.11 4.59-0.34 6.88" fill="none" stroke="#464632" stroke-linecap="round" stroke-linejoin="round" stroke-miterlimit="10" stroke-width="30"/>
        <path d="m2884.5 1167.5 5.78 245.38" fill="none" stroke="#464632" stroke-linecap="round" stroke-linejoin="round" stroke-miterlimit="10" stroke-width="30"/>
        <path d="m2882.8 1098.6h34.45c0 19.02-15.43 34.44-34.45 34.44s-34.45-15.42-34.45-34.44 15.43-34.45 34.45-34.45 34.45 15.43 34.45 34.45c0 1.14-0.06 2.3-0.17 3.44" fill="#dd460a"/>
        <path d="m2960.8 1481.7c0 38.05-30.85 68.89-68.89 68.89-38.05 0-68.9-30.84-68.9-68.89s30.85-68.9 68.9-68.9c38.04 0 68.89 30.85 68.89 68.9 0 2.29-0.12 4.59-0.34 6.88" fill="none" stroke="#464632" stroke-linecap="round" stroke-linejoin="round" stroke-miterlimit="10" stroke-width="30"/>
        <path d="m2891.9 1481.7h34.44c0 19.02-15.42 34.44-34.44 34.44-19.03 0-34.45-15.42-34.45-34.44s15.42-34.45 34.45-34.45c19.02 0 34.44 15.43 34.44 34.45 0 1.14-0.06 2.3-0.17 3.44" fill="#dd460a"/>
        <path d="m2866.1 1821c0 38.05-30.85 68.9-68.9 68.9-38.04 0-68.89-30.85-68.89-68.9s30.85-68.89 68.89-68.89c38.05 0 68.9 30.84 68.9 68.89 0 2.3-0.12 4.6-0.35 6.88" fill="none" stroke="#464632" stroke-linecap="round" stroke-linejoin="round" stroke-miterlimit="10" stroke-width="30"/>
        <path d="m2900.5 1821c0 57.05-46.25 103.3-103.3 103.3s-103.3-46.25-103.3-103.3 46.25-103.3 103.3-103.3 103.3 46.25 103.3 103.3c0 3.45-0.17 6.89-0.51 10.32" fill="none" stroke="#464632" stroke-linecap="round" stroke-linejoin="round" stroke-miterlimit="10" stroke-width="30"/>
        <path d="m2797.2 1821h34.45c0 19.02-15.42 34.45-34.45 34.45-19.02 0-34.45-15.43-34.45-34.45s15.43-34.45 34.45-34.45c19.03 0 34.45 15.43 34.45 34.45 0 1.15-0.06 2.3-0.17 3.44" fill="#dd460a"/>
        <path d="m2872 2156.9c0 38.05-30.85 68.9-68.9 68.9-38.04 0-68.89-30.85-68.89-68.9s30.85-68.89 68.89-68.89c38.05 0 68.9 30.84 68.9 68.89 0 2.3-0.12 4.6-0.35 6.88" fill="none" stroke="#464632" stroke-linecap="round" stroke-linejoin="round" stroke-miterlimit="10" stroke-width="30"/>
        <path d="m2871.4 2148.6 214.39-26.39" fill="none" stroke="#464632" stroke-linecap="round" stroke-linejoin="round" stroke-miterlimit="10" stroke-width="30"/>
        <path d="m2803.1 2156.9h34.45c0 19.02-15.42 34.45-34.45 34.45-19.02 0-34.45-15.43-34.45-34.45s15.43-34.44 34.45-34.44c19.03 0 34.45 15.42 34.45 34.44 0 1.15-0.06 2.3-0.17 3.44" fill="#dd460a"/>
        <path d="m2910.1 2492.2c0 38.05-30.85 68.9-68.9 68.9-38.04 0-68.89-30.85-68.89-68.9 0-38.04 30.85-68.89 68.89-68.89 38.05 0 68.9 30.85 68.9 68.89 0 2.3-0.12 4.6-0.35 6.88" fill="none" stroke="#464632" stroke-linecap="round" stroke-linejoin="round" stroke-miterlimit="10" stroke-width="30"/>
        <path d="m2834 2560.7-25.48 244.12" fill="none" stroke="#464632" stroke-linecap="round" stroke-linejoin="round" stroke-miterlimit="10" stroke-width="30"/>
        <path d="m2841.2 2492.2h34.45c0 19.03-15.42 34.45-34.45 34.45-19.02 0-34.44-15.42-34.44-34.45 0-19.02 15.42-34.44 34.44-34.44 19.03 0 34.45 15.42 34.45 34.44 0 1.15-0.06 2.31-0.17 3.45" fill="#dd460a"/>
        <path d="m2870.3 2873.3c0 38.05-30.84 68.89-68.89 68.89s-68.89-30.84-68.89-68.89 30.84-68.89 68.89-68.89 68.89 30.84 68.89 68.89c0 2.3-0.11 4.6-0.34 6.88" fill="none" stroke="#464632" stroke-linecap="round" stroke-linejoin="round" stroke-miterlimit="10" stroke-width="30"/>
        <path d="m2801.4 2873.3h34.45c0 19.02-15.43 34.45-34.45 34.45s-34.45-15.43-34.45-34.45 15.43-34.45 34.45-34.45 34.45 15.43 34.45 34.45c0 1.14-0.06 2.3-0.18 3.44" fill="#dd460a"/>
        <path d="m2930.7 3153.2c0 38.04-30.84 68.89-68.89 68.89s-68.89-30.85-68.89-68.89c0-38.05 30.84-68.9 68.89-68.9s68.89 30.85 68.89 68.9c0 2.29-0.11 4.59-0.34 6.88" fill="none" stroke="#464632" stroke-linecap="round" stroke-linejoin="round" stroke-miterlimit="10" stroke-width="30"/>
        <path d="m2849.3 3221-38.85 211.68" fill="none" stroke="#464632" stroke-linecap="round" stroke-linejoin="round" stroke-miterlimit="10" stroke-width="30"/>
        <path d="m2861.8 3153.2h34.45c0 19.02-15.43 34.44-34.45 34.44s-34.45-15.42-34.45-34.44c0-19.03 15.43-34.45 34.45-34.45s34.45 15.42 34.45 34.45c0 1.14-0.06 2.29-0.17 3.43" fill="#dd460a"/>
        <path d="m2867 3500.4c0 38.05-30.85 68.9-68.89 68.9-38.05 0-68.9-30.85-68.9-68.9 0-38.04 30.85-68.89 68.9-68.89 38.04 0 68.89 30.85 68.89 68.89 0 2.3-0.12 4.6-0.34 6.88" fill="none" stroke="#464632" stroke-linecap="round" stroke-linejoin="round" stroke-miterlimit="10" stroke-width="30"/>
        <path d="m2798 3569.3-0.12 278.72" fill="none" stroke="#464632" stroke-linecap="round" stroke-linejoin="round" stroke-miterlimit="10" stroke-width="30"/>
        <path d="m2798.1 3500.4h34.45c0 19.03-15.43 34.45-34.45 34.45-19.03 0-34.45-15.42-34.45-34.45 0-19.02 15.42-34.45 34.45-34.45 19.02 0 34.45 15.43 34.45 34.45 0 1.15-0.06 2.3-0.18 3.44" fill="#dd460a"/>
        <path d="m3267.1 832.29c0 38.047-30.85 68.895-68.9 68.895-38.04 0-68.89-30.848-68.89-68.895s30.85-68.894 68.89-68.894c38.05 0 68.9 30.847 68.9 68.894 0 2.297-0.12 4.598-0.35 6.879" fill="none" stroke="#464632" stroke-linecap="round" stroke-linejoin="round" stroke-miterlimit="10" stroke-width="30"/>
        <path d="m3198.2 832.29h34.45c0 19.024-15.42 34.445-34.45 34.445-19.02 0-34.44-15.421-34.44-34.445 0-19.023 15.42-34.449 34.44-34.449 19.03 0 34.45 15.426 34.45 34.449 0 1.145-0.06 2.297-0.17 3.438" fill="#dd460a"/>
        <path d="m3275.7 1169c0 38.05-30.85 68.9-68.89 68.9-38.05 0-68.9-30.85-68.9-68.9 0-38.04 30.85-68.89 68.9-68.89 38.04 0 68.89 30.85 68.89 68.89 0 2.3-0.12 4.6-0.34 6.88" fill="none" stroke="#464632" stroke-linecap="round" stroke-linejoin="round" stroke-miterlimit="10" stroke-width="30"/>
        <path d="m3274.9 1158.5 144.86-22.34" fill="none" stroke="#464632" stroke-linecap="round" stroke-linejoin="round" stroke-miterlimit="10" stroke-width="30"/>
        <path d="m3206.8 1169h34.44c0 19.03-15.42 34.45-34.44 34.45-19.03 0-34.45-15.42-34.45-34.45 0-19.02 15.42-34.44 34.45-34.44 19.02 0 34.44 15.42 34.44 34.44 0 1.15-0.06 2.31-0.17 3.45" fill="#dd460a"/>
        <path d="m3267.1 1464.3c0 38.04-30.85 68.89-68.9 68.89-38.04 0-68.89-30.85-68.89-68.89 0-38.05 30.85-68.9 68.89-68.9 38.05 0 68.9 30.85 68.9 68.9 0 2.29-0.12 4.6-0.35 6.88" fill="none" stroke="#464632" stroke-linecap="round" stroke-linejoin="round" stroke-miterlimit="10" stroke-width="30"/>
        <path d="m3267.1 1463.9 206.76-1.02" fill="none" stroke="#464632" stroke-linecap="round" stroke-linejoin="round" stroke-miterlimit="10" stroke-width="30"/>
        <path d="m3198.2 1464.3h34.45c0 19.02-15.42 34.45-34.45 34.45-19.02 0-34.44-15.43-34.44-34.45 0-19.03 15.42-34.45 34.44-34.45 19.03 0 34.45 15.42 34.45 34.45 0 1.14-0.06 2.29-0.17 3.44" fill="#dd460a"/>
        <path d="m3269.8 1809.4c0 38.05-30.84 68.9-68.89 68.9s-68.9-30.85-68.9-68.9 30.85-68.89 68.9-68.89 68.89 30.84 68.89 68.89c0 2.29-0.11 4.6-0.34 6.88" fill="none" stroke="#464632" stroke-linecap="round" stroke-linejoin="round" stroke-miterlimit="10" stroke-width="30"/>
        <path d="m3269.8 1809.4 239.84-0.11" fill="none" stroke="#464632" stroke-linecap="round" stroke-linejoin="round" stroke-miterlimit="10" stroke-width="30"/>
        <path d="m3200.9 1809.4h34.44c0 19.02-15.42 34.45-34.44 34.45s-34.45-15.43-34.45-34.45 15.43-34.45 34.45-34.45 34.44 15.43 34.44 34.45c0 1.15-0.05 2.3-0.17 3.44" fill="#dd460a"/>
        <path d="m3223.1 2113.8c0 38.04-30.85 68.89-68.9 68.89s-68.89-30.85-68.89-68.89c0-38.05 30.84-68.9 68.89-68.9s68.9 30.85 68.9 68.9c0 2.29-0.12 4.59-0.35 6.87" fill="none" stroke="#464632" stroke-linecap="round" stroke-linejoin="round" stroke-miterlimit="10" stroke-width="30"/>
        <path d="m3221.7 2127.6 198.51 40.7" fill="none" stroke="#464632" stroke-linecap="round" stroke-linejoin="round" stroke-miterlimit="10" stroke-width="30"/>
        <path d="m3154.2 2113.8h34.45c0 19.02-15.43 34.44-34.45 34.44s-34.45-15.42-34.45-34.44c0-19.03 15.43-34.45 34.45-34.45s34.45 15.42 34.45 34.45c0 1.14-0.06 2.29-0.17 3.44" fill="#dd460a"/>
        <path d="m3265.6 2525.5c0 38.05-30.85 68.9-68.9 68.9s-68.89-30.85-68.89-68.9c0-38.04 30.84-68.89 68.89-68.89s68.9 30.85 68.9 68.89c0 2.3-0.12 4.6-0.35 6.88" fill="none" stroke="#464632" stroke-linecap="round" stroke-linejoin="round" stroke-miterlimit="10" stroke-width="30"/>
        <path d="m3196 2594.4-2.36 231.06" fill="none" stroke="#464632" stroke-linecap="round" stroke-linejoin="round" stroke-miterlimit="10" stroke-width="30"/>
        <path d="m3196.7 2525.5h34.45c0 19.03-15.43 34.45-34.45 34.45s-34.45-15.42-34.45-34.45c0-19.02 15.43-34.45 34.45-34.45s34.45 15.43 34.45 34.45c0 1.15-0.06 2.3-0.18 3.44" fill="#dd460a"/>
        <path d="m3261.8 2894.4c0 38.05-30.85 68.89-68.9 68.89-38.04 0-68.89-30.84-68.89-68.89s30.85-68.9 68.89-68.9c38.05 0 68.9 30.85 68.9 68.9 0 2.3-0.12 4.6-0.35 6.88" fill="none" stroke="#464632" stroke-linecap="round" stroke-linejoin="round" stroke-miterlimit="10" stroke-width="30"/>
        <path d="m3193.6 2963.2 1.58 167.91" fill="none" stroke="#464632" stroke-linecap="round" stroke-linejoin="round" stroke-miterlimit="10" stroke-width="30"/>
        <path d="m3192.9 2894.4h34.45c0 19.02-15.42 34.44-34.45 34.44-19.02 0-34.44-15.42-34.44-34.44s15.42-34.45 34.44-34.45c19.03 0 34.45 15.43 34.45 34.45 0 1.14-0.06 2.3-0.17 3.44" fill="#dd460a"/>
        <path d="m3264.7 3200c0 38.05-30.85 68.89-68.89 68.89-38.05 0-68.9-30.84-68.9-68.89s30.85-68.89 68.9-68.89c38.04 0 68.89 30.84 68.89 68.89 0 2.3-0.12 4.6-0.34 6.88" fill="none" stroke="#464632" stroke-linecap="round" stroke-linejoin="round" stroke-miterlimit="10" stroke-width="30"/>
        <path d="m3195.8 3200h34.44c0 19.02-15.42 34.45-34.44 34.45-19.03 0-34.45-15.43-34.45-34.45s15.42-34.45 34.45-34.45c19.02 0 34.44 15.43 34.44 34.45 0 1.15-0.05 2.3-0.17 3.44" fill="#dd460a"/>
        <path d="m3261.1 3496.8c0 38.04-30.85 68.89-68.89 68.89-38.05 0-68.9-30.85-68.9-68.89 0-38.05 30.85-68.9 68.9-68.9 38.04 0 68.89 30.85 68.89 68.9 0 2.29-0.12 4.59-0.34 6.88" fill="none" stroke="#464632" stroke-linecap="round" stroke-linejoin="round" stroke-miterlimit="10" stroke-width="30"/>
        <path d="m3295.6 3496.8c0 57.05-46.25 103.3-103.3 103.3s-103.3-46.25-103.3-103.3 46.25-103.31 103.3-103.31 103.3 46.26 103.3 103.31c0 3.44-0.17 6.88-0.51 10.31" fill="none" stroke="#464632" stroke-linecap="round" stroke-linejoin="round" stroke-miterlimit="10" stroke-width="30"/>
        <path d="m3192.2 3496.8h34.45c0 19.02-15.43 34.44-34.45 34.44-19.03 0-34.45-15.42-34.45-34.44 0-19.03 15.42-34.45 34.45-34.45 19.02 0 34.45 15.42 34.45 34.45 0 1.14-0.06 2.29-0.18 3.43" fill="#dd460a"/>
        <path d="m3567.6 819.04c0 38.047-30.85 68.895-68.9 68.895-38.04 0-68.89-30.848-68.89-68.895s30.85-68.894 68.89-68.894c38.05 0 68.9 30.847 68.9 68.894 0 2.297-0.12 4.598-0.34 6.879" fill="none" stroke="#464632" stroke-linecap="round" stroke-linejoin="round" stroke-miterlimit="10" stroke-width="30"/>
        <path d="m3498.7 819.04h34.45c0 19.024-15.42 34.449-34.45 34.449-19.02 0-34.44-15.425-34.44-34.449 0-19.023 15.42-34.445 34.44-34.445 19.03 0 34.45 15.422 34.45 34.445 0 1.149-0.05 2.301-0.17 3.442" fill="#dd460a"/>
        <path d="m3556.7 1125.6c0 38.05-30.85 68.9-68.9 68.9s-68.89-30.85-68.89-68.9c0-38.04 30.84-68.89 68.89-68.89s68.9 30.85 68.9 68.89c0 2.3-0.12 4.6-0.35 6.88" fill="none" stroke="#464632" stroke-linecap="round" stroke-linejoin="round" stroke-miterlimit="10" stroke-width="30"/>
        <path d="m3498.9 1193.6 32.76 200.95" fill="none" stroke="#464632" stroke-linecap="round" stroke-linejoin="round" stroke-miterlimit="10" stroke-width="30"/>
        <path d="m3487.8 1125.6h34.45c0 19.03-15.43 34.45-34.45 34.45s-34.44-15.42-34.44-34.45c0-19.02 15.42-34.44 34.44-34.44s34.45 15.42 34.45 34.44c0 1.15-0.06 2.3-0.17 3.44" fill="#dd460a"/>
        <path d="m3611.6 1462.6c0 38.04-30.84 68.89-68.89 68.89s-68.9-30.85-68.9-68.89c0-38.05 30.85-68.9 68.9-68.9s68.89 30.85 68.89 68.9c0 2.29-0.11 4.59-0.34 6.88" fill="none" stroke="#464632" stroke-linecap="round" stroke-linejoin="round" stroke-miterlimit="10" stroke-width="30"/>
        <path d="m3611.4 1468 182.89 14.32" fill="none" stroke="#464632" stroke-linecap="round" stroke-linejoin="round" stroke-miterlimit="10" stroke-width="30"/>
        <path d="m3542.7 1462.6h34.44c0 19.02-15.42 34.45-34.44 34.45-19.03 0-34.45-15.43-34.45-34.45 0-19.03 15.42-34.45 34.45-34.45 19.02 0 34.44 15.42 34.44 34.45 0 1.14-0.05 2.3-0.17 3.44" fill="#dd460a"/>
        <path d="m3647.4 1809.2c0 38.05-30.85 68.9-68.9 68.9-38.04 0-68.89-30.85-68.89-68.9 0-38.04 30.85-68.89 68.89-68.89 38.05 0 68.9 30.85 68.9 68.89 0 2.3-0.12 4.6-0.35 6.88" fill="none" stroke="#464632" stroke-linecap="round" stroke-linejoin="round" stroke-miterlimit="10" stroke-width="30"/>
        <path d="m3647.1 1803 191.7-17.46" fill="none" stroke="#464632" stroke-linecap="round" stroke-linejoin="round" stroke-miterlimit="10" stroke-width="30"/>
        <path d="m3578.5 1809.2h34.45c0 19.03-15.42 34.45-34.45 34.45-19.02 0-34.45-15.42-34.45-34.45 0-19.02 15.43-34.44 34.45-34.44 19.03 0 34.45 15.42 34.45 34.44 0 1.15-0.06 2.3-0.17 3.44" fill="#dd460a"/>
        <path d="m3556.5 2182.1c0 38.05-30.85 68.89-68.9 68.89-38.04 0-68.89-30.84-68.89-68.89s30.85-68.89 68.89-68.89c38.05 0 68.9 30.84 68.9 68.89 0 2.3-0.12 4.6-0.34 6.88" fill="none" stroke="#464632" stroke-linecap="round" stroke-linejoin="round" stroke-miterlimit="10" stroke-width="30"/>
        <path d="m3487.6 2182.1h34.45c0 19.02-15.42 34.45-34.45 34.45-19.02 0-34.44-15.43-34.44-34.45s15.42-34.44 34.44-34.44c19.03 0 34.45 15.42 34.45 34.44 0 1.14-0.05 2.3-0.17 3.44" fill="#dd460a"/>
        <path d="m3596.1 2504.3c0 38.05-30.85 68.89-68.9 68.89-38.04 0-68.89-30.84-68.89-68.89s30.85-68.9 68.89-68.9c38.05 0 68.9 30.85 68.9 68.9 0 2.3-0.12 4.6-0.35 6.88" fill="none" stroke="#464632" stroke-linecap="round" stroke-linejoin="round" stroke-miterlimit="10" stroke-width="30"/>
        <path d="m3595.2 2515 193.39 30.4" fill="none" stroke="#464632" stroke-linecap="round" stroke-linejoin="round" stroke-miterlimit="10" stroke-width="30"/>
        <path d="m3529.3 2573.2 5.35 170.55" fill="none" stroke="#464632" stroke-linecap="round" stroke-linejoin="round" stroke-miterlimit="10" stroke-width="30"/>
        <path d="m3527.2 2504.3h34.45c0 19.02-15.42 34.44-34.45 34.44-19.02 0-34.44-15.42-34.44-34.44 0-19.03 15.42-34.45 34.44-34.45 19.03 0 34.45 15.42 34.45 34.45 0 1.14-0.06 2.3-0.17 3.44" fill="#dd460a"/>
        <path d="m3605.7 2812.6c0 38.04-30.85 68.89-68.9 68.89s-68.89-30.85-68.89-68.89c0-38.05 30.84-68.9 68.89-68.9s68.9 30.85 68.9 68.9c0 2.29-0.12 4.59-0.35 6.87" fill="none" stroke="#464632" stroke-linecap="round" stroke-linejoin="round" stroke-miterlimit="10" stroke-width="30"/>
        <path d="m3536.8 2812.6h34.45c0 19.02-15.42 34.44-34.45 34.44-19.02 0-34.45-15.42-34.45-34.44 0-19.03 15.43-34.45 34.45-34.45 19.03 0 34.45 15.42 34.45 34.45 0 1.14-0.06 2.29-0.17 3.43" fill="#dd460a"/>
        <path d="m3648.7 3182.5c0 38.05-30.85 68.9-68.9 68.9s-68.89-30.85-68.89-68.9c0-38.04 30.84-68.89 68.89-68.89s68.9 30.85 68.9 68.89c0 2.3-0.12 4.6-0.35 6.88" fill="none" stroke="#464632" stroke-linecap="round" stroke-linejoin="round" stroke-miterlimit="10" stroke-width="30"/>
        <path d="m3567.1 3250.2-48.8 259.46" fill="none" stroke="#464632" stroke-linecap="round" stroke-linejoin="round" stroke-miterlimit="10" stroke-width="30"/>
        <path d="m3579.8 3182.5h34.45c0 19.03-15.43 34.45-34.45 34.45s-34.45-15.42-34.45-34.45c0-19.02 15.43-34.44 34.45-34.44s34.45 15.42 34.45 34.44c0 1.15-0.06 2.3-0.18 3.44" fill="#dd460a"/>
        <path d="m3574.4 3577.4c0 38.05-30.84 68.9-68.89 68.9s-68.9-30.85-68.9-68.9 30.85-68.89 68.9-68.89 68.89 30.84 68.89 68.89c0 2.29-0.11 4.6-0.34 6.88" fill="none" stroke="#464632" stroke-linecap="round" stroke-linejoin="round" stroke-miterlimit="10" stroke-width="30"/>
        <path d="m3573.3 3565 211.48-38.69" fill="none" stroke="#464632" stroke-linecap="round" stroke-linejoin="round" stroke-miterlimit="10" stroke-width="30"/>
        <path d="m3505.5 3577.4h34.44c0 19.03-15.42 34.45-34.44 34.45s-34.45-15.42-34.45-34.45c0-19.02 15.43-34.45 34.45-34.45s34.44 15.43 34.44 34.45c0 1.15-0.05 2.3-0.17 3.44" fill="#dd460a"/>
      </g>
    </g>
  </g>
</svg>